<?xml version="1.0" encoding="utf-8"?>
<!-- Generator: Adobe Illustrator 17.1.0, SVG Export Plug-In . SVG Version: 6.00 Build 0)  -->
<!DOCTYPE svg PUBLIC "-//W3C//DTD SVG 1.1//EN" "http://www.w3.org/Graphics/SVG/1.1/DTD/svg11.dtd">
<svg version="1.1" id="Layer_1" xmlns="http://www.w3.org/2000/svg" xmlns:xlink="http://www.w3.org/1999/xlink" x="0px" y="0px"
	 viewBox="0 0 752 516" enable-background="new 0 0 752 516" xml:space="preserve">
<g id="Layer_1_1_">
</g>
<g id="Layer_2">
	<g>
		<g>
			
				<linearGradient id="SVGID_2_" gradientUnits="userSpaceOnUse" x1="173.484" y1="704.3936" x2="173.484" y2="-11.8452" gradientTransform="matrix(1 0 0 1 202.5 -196)">
				<stop  offset="0" style="stop-color:#3EB4D9"/>
				<stop  offset="3.570000e-02" style="stop-color:#4FBCDC"/>
				<stop  offset="0.1048" style="stop-color:#6AC8E0"/>
				<stop  offset="0.1843" style="stop-color:#80D2E4"/>
				<stop  offset="0.2771" style="stop-color:#91DAE7"/>
				<stop  offset="0.3919" style="stop-color:#9CDFE9"/>
				<stop  offset="0.5529" style="stop-color:#A3E2EA"/>
				<stop  offset="1" style="stop-color:#A5E3EA"/>
			</linearGradient>
			<path id="SVGID_1_" fill="url(#SVGID_2_)" d="M595.8,170.6v-55.2h78.2v-30h-78.2V34.6H687v-30H560v166h-94.6v-55.2h78.2v-30
				h-78.2V34.6h85.6v-30H429.4v32.7c-1.1-2.3-2.4-4.4-3.9-6.4c-6.3-8.6-15.1-15.2-26.7-19.6c-6.1-2.2-13.3-3.9-21.8-5.1
				c-8.5-1.1-17.7-1.7-27.5-1.7h-59.6v0.1h-30.3v83.8c0,8.2-1.1,14.6-3.4,19.2c-2.2,4.8-5.6,8.3-10,10.7c-4.4,2.3-9.8,3.5-16,3.5
				c-6,0-11.1-1-15.4-3.2c-4.3-2.1-7.6-5.3-10-9.6c-1.4-2.5-2.4-5.5-3.1-9c-0.7-3.5-1-7.6-1-12.4V4.7h-34.7V42L146.7,5.3H86.3L0,170
				l197.8,30.1L349.2,487c23.3,43.1,72.7,17,72.7,17s-18-13-45.8-65.1L223.2,150c2.3,0.1,4.6,0.2,7,0.2c7.5,0,14.3-0.7,20.4-2.1
				c6.1-1.4,11.6-3.4,16.4-6c4.8-2.6,9-5.7,12.6-9.4c3.6-3.7,6.5-7.7,8.7-12.2c0.6-1.1,1.1-2.3,1.6-3.5v83.6h35.9v-75.9h24.6
				l53.3,75.9h25.7h17.4H560h1.8H752v-30L595.8,170.6L595.8,170.6z M67.4,140.4l49.5-93.8l60.2,112.7L67.4,140.4z M364.4,93.6
				c-5.7,0.7-12.7,1.1-20.9,1.1h-17.7V34.6h25.6c7.6,0,14,0.4,19.2,1.1c5.2,0.7,9.5,1.9,12.9,3.4c5.3,2.3,9,5.5,11.2,9.6
				c2.2,4.1,3.3,8.7,3.3,14c0,6.2-1.4,11.6-4.2,16.3c-2.8,4.7-7.8,8.5-15,11.2C375,91.8,370.1,92.9,364.4,93.6z M388.5,120v-0.6
				c15.8-4.6,27.5-11.6,35.1-21.2c2.3-2.9,4.2-6,5.8-9.2v87.5L388.5,120z"/>
		</g>
		<g>
			<g>
				<defs>
					<path id="SVGID_3_" d="M595.8,170.6v-55.2h78.2v-30h-78.2V34.6H687v-30H560v166h-94.6v-55.2h78.2v-30h-78.2V34.6h85.6v-30
						H429.4v32.7c-1.1-2.3-2.4-4.4-3.9-6.4c-6.3-8.6-15.1-15.2-26.7-19.6c-6.1-2.2-13.3-3.9-21.8-5.1c-8.5-1.1-17.7-1.7-27.5-1.7
						h-59.6v0.1h-30.3v83.8c0,8.2-1.1,14.6-3.4,19.2c-2.2,4.8-5.6,8.3-10,10.7c-4.4,2.3-9.8,3.5-16,3.5c-6,0-11.1-1-15.4-3.2
						c-4.3-2.1-7.6-5.3-10-9.6c-1.4-2.5-2.4-5.5-3.1-9c-0.7-3.5-1-7.6-1-12.4V4.7h-34.7V42L146.7,5.3H86.3L0,170l197.8,30.1
						L349.2,487c23.3,43.1,72.7,17,72.7,17s-18-13-45.8-65.1L223.2,150c2.3,0.1,4.6,0.2,7,0.2c7.5,0,14.3-0.7,20.4-2.1
						c6.1-1.4,11.6-3.4,16.4-6c4.8-2.6,9-5.7,12.6-9.4c3.6-3.7,6.5-7.7,8.7-12.2c0.6-1.1,1.1-2.3,1.6-3.5v83.6h35.9v-75.9h24.6
						l53.3,75.9h25.7h17.4H560h1.8H752v-30L595.8,170.6L595.8,170.6z M67.4,140.4l49.5-93.8l60.2,112.7L67.4,140.4z M364.4,93.6
						c-5.7,0.7-12.7,1.1-20.9,1.1h-17.7V34.6h25.6c7.6,0,14,0.4,19.2,1.1c5.2,0.7,9.5,1.9,12.9,3.4c5.3,2.3,9,5.5,11.2,9.6
						c2.2,4.1,3.3,8.7,3.3,14c0,6.2-1.4,11.6-4.2,16.3c-2.8,4.7-7.8,8.5-15,11.2C375,91.8,370.1,92.9,364.4,93.6z M388.5,120v-0.6
						c15.8-4.6,27.5-11.6,35.1-21.2c2.3-2.9,4.2-6,5.8-9.2v87.5L388.5,120z"/>
				</defs>
				<clipPath id="SVGID_4_">
					<use xlink:href="#SVGID_3_"  overflow="visible"/>
				</clipPath>
				
					<linearGradient id="SVGID_5_" gradientUnits="userSpaceOnUse" x1="159.194" y1="870.9102" x2="159.194" y2="-726.3376" gradientTransform="matrix(1 0 0 1 202.5 -196)">
					<stop  offset="0" style="stop-color:#7BD7CD"/>
					<stop  offset="0.1131" style="stop-color:#8CDCD8"/>
					<stop  offset="0.3218" style="stop-color:#A7E3E8"/>
					<stop  offset="0.5364" style="stop-color:#B9E8F3"/>
					<stop  offset="0.7586" style="stop-color:#C4EBFA"/>
					<stop  offset="1" style="stop-color:#C8ECFC"/>
				</linearGradient>
				<circle clip-path="url(#SVGID_4_)" fill="url(#SVGID_5_)" cx="361.7" cy="117" r="565.6"/>
			</g>
		</g>
		<g>
			<g>
				<defs>
					<path id="SVGID_6_" d="M595.8,170.6v-55.2h78.2v-30h-78.2V34.6H687v-30H560v166h-94.6v-55.2h78.2v-30h-78.2V34.6h85.6v-30
						H429.4v32.7c-1.1-2.3-2.4-4.4-3.9-6.4c-6.3-8.6-15.1-15.2-26.7-19.6c-6.1-2.2-13.3-3.9-21.8-5.1c-8.5-1.1-17.7-1.7-27.5-1.7
						h-59.6v0.1h-30.3v83.8c0,8.2-1.1,14.6-3.4,19.2c-2.2,4.8-5.6,8.3-10,10.7c-4.4,2.3-9.8,3.5-16,3.5c-6,0-11.1-1-15.4-3.2
						c-4.3-2.1-7.6-5.3-10-9.6c-1.4-2.5-2.4-5.5-3.1-9c-0.7-3.5-1-7.6-1-12.4V4.7h-34.7V42L146.7,5.3H86.3L0,170l197.8,30.1
						L349.2,487c23.3,43.1,72.7,17,72.7,17s-18-13-45.8-65.1L223.2,150c2.3,0.1,4.6,0.2,7,0.2c7.5,0,14.3-0.7,20.4-2.1
						c6.1-1.4,11.6-3.4,16.4-6c4.8-2.6,9-5.7,12.6-9.4c3.6-3.7,6.5-7.7,8.7-12.2c0.6-1.1,1.1-2.3,1.6-3.5v83.6h35.9v-75.9h24.6
						l53.3,75.9h25.7h17.4H560h1.8H752v-30L595.8,170.6L595.8,170.6z M67.4,140.4l49.5-93.8l60.2,112.7L67.4,140.4z M364.4,93.6
						c-5.7,0.7-12.7,1.1-20.9,1.1h-17.7V34.6h25.6c7.6,0,14,0.4,19.2,1.1c5.2,0.7,9.5,1.9,12.9,3.4c5.3,2.3,9,5.5,11.2,9.6
						c2.2,4.1,3.3,8.7,3.3,14c0,6.2-1.4,11.6-4.2,16.3c-2.8,4.7-7.8,8.5-15,11.2C375,91.8,370.1,92.9,364.4,93.6z M388.5,120v-0.6
						c15.8-4.6,27.5-11.6,35.1-21.2c2.3-2.9,4.2-6,5.8-9.2v87.5L388.5,120z"/>
				</defs>
				<clipPath id="SVGID_7_">
					<use xlink:href="#SVGID_6_"  overflow="visible"/>
				</clipPath>
				
					<linearGradient id="SVGID_8_" gradientUnits="userSpaceOnUse" x1="-514.1512" y1="585.8723" x2="-514.1512" y2="178.5991" gradientTransform="matrix(-0.8783 -0.4781 -0.4781 0.8783 263.7899 -427.274)">
					<stop  offset="0" style="stop-color:#D9F2EB"/>
					<stop  offset="9.700000e-03" style="stop-color:#D5F1E9;stop-opacity:0.9954"/>
					<stop  offset="8.090000e-02" style="stop-color:#BAE8DA;stop-opacity:0.962"/>
					<stop  offset="0.1619" style="stop-color:#A4E2CD;stop-opacity:0.9239"/>
					<stop  offset="0.2572" style="stop-color:#93DCC4;stop-opacity:0.8791"/>
					<stop  offset="0.3752" style="stop-color:#88D9BD;stop-opacity:0.8237"/>
					<stop  offset="0.5406" style="stop-color:#81D7B9;stop-opacity:0.7459"/>
					<stop  offset="1" style="stop-color:#7FD6B8;stop-opacity:0.53"/>
				</linearGradient>
				<path clip-path="url(#SVGID_7_)" fill="url(#SVGID_8_)" d="M916.9,416.7C893.7-117.8,109.5,525.6,86.9,4.6"/>
			</g>
		</g>
		<g>
			<g>
				<defs>
					<path id="SVGID_9_" d="M595.8,170.6v-55.2h78.2v-30h-78.2V34.6H687v-30H560v166h-94.6v-55.2h78.2v-30h-78.2V34.6h85.6v-30
						H429.4v32.7c-1.1-2.3-2.4-4.4-3.9-6.4c-6.3-8.6-15.1-15.2-26.7-19.6c-6.1-2.2-13.3-3.9-21.8-5.1c-8.5-1.1-17.7-1.7-27.5-1.7
						h-59.6v0.1h-30.3v83.8c0,8.2-1.1,14.6-3.4,19.2c-2.2,4.8-5.6,8.3-10,10.7c-4.4,2.3-9.8,3.5-16,3.5c-6,0-11.1-1-15.4-3.2
						c-4.3-2.1-7.6-5.3-10-9.6c-1.4-2.5-2.4-5.5-3.1-9c-0.7-3.5-1-7.6-1-12.4V4.7h-34.7V42L146.7,5.3H86.3L0,170l197.8,30.1
						L349.2,487c23.3,43.1,72.7,17,72.7,17s-18-13-45.8-65.1L223.2,150c2.3,0.1,4.6,0.2,7,0.2c7.5,0,14.3-0.7,20.4-2.1
						c6.1-1.4,11.6-3.4,16.4-6c4.8-2.6,9-5.7,12.6-9.4c3.6-3.7,6.5-7.7,8.7-12.2c0.6-1.1,1.1-2.3,1.6-3.5v83.6h35.9v-75.9h24.6
						l53.3,75.9h25.7h17.4H560h1.8H752v-30L595.8,170.6L595.8,170.6z M67.4,140.4l49.5-93.8l60.2,112.7L67.4,140.4z M364.4,93.6
						c-5.7,0.7-12.7,1.1-20.9,1.1h-17.7V34.6h25.6c7.6,0,14,0.4,19.2,1.1c5.2,0.7,9.5,1.9,12.9,3.4c5.3,2.3,9,5.5,11.2,9.6
						c2.2,4.1,3.3,8.7,3.3,14c0,6.2-1.4,11.6-4.2,16.3c-2.8,4.7-7.8,8.5-15,11.2C375,91.8,370.1,92.9,364.4,93.6z M388.5,120v-0.6
						c15.8-4.6,27.5-11.6,35.1-21.2c2.3-2.9,4.2-6,5.8-9.2v87.5L388.5,120z"/>
				</defs>
				<clipPath id="SVGID_10_">
					<use xlink:href="#SVGID_9_"  overflow="visible"/>
				</clipPath>
				
					<linearGradient id="SVGID_11_" gradientUnits="userSpaceOnUse" x1="-549.7036" y1="599.1938" x2="-549.7036" y2="367.8737" gradientTransform="matrix(-0.8656 -0.5008 -0.5008 0.8656 284.8623 -407.7974)">
					<stop  offset="0" style="stop-color:#F0F27A;stop-opacity:0.72"/>
					<stop  offset="3.484649e-04" style="stop-color:#D3EB88;stop-opacity:0.7359"/>
					<stop  offset="7.631315e-04" style="stop-color:#B8E494;stop-opacity:0.7548"/>
					<stop  offset="1.200000e-03" style="stop-color:#A2DE9E;stop-opacity:0.7766"/>
					<stop  offset="1.800000e-03" style="stop-color:#91DAA6;stop-opacity:0.802"/>
					<stop  offset="2.500000e-03" style="stop-color:#86D7AC;stop-opacity:0.8335"/>
					<stop  offset="3.500000e-03" style="stop-color:#7FD5AF;stop-opacity:0.8776"/>
					<stop  offset="6.100000e-03" style="stop-color:#7DD5B0"/>
					<stop  offset="1" style="stop-color:#59D2DB;stop-opacity:0.76"/>
				</linearGradient>
				<path clip-path="url(#SVGID_10_)" fill="url(#SVGID_11_)" d="M912.6,634.4C903.4,99.5,95.3,525,86.3,3.6"/>
			</g>
		</g>
		<g>
			<g>
				<defs>
					<path id="SVGID_12_" d="M595.8,170.6v-55.2h78.2v-30h-78.2V34.6H687v-30H560v166h-94.6v-55.2h78.2v-30h-78.2V34.6h85.6v-30
						H429.4v32.7c-1.1-2.3-2.4-4.4-3.9-6.4c-6.3-8.6-15.1-15.2-26.7-19.6c-6.1-2.2-13.3-3.9-21.8-5.1c-8.5-1.1-17.7-1.7-27.5-1.7
						h-59.6v0.1h-30.3v83.8c0,8.2-1.1,14.6-3.4,19.2c-2.2,4.8-5.6,8.3-10,10.7c-4.4,2.3-9.8,3.5-16,3.5c-6,0-11.1-1-15.4-3.2
						c-4.3-2.1-7.6-5.3-10-9.6c-1.4-2.5-2.4-5.5-3.1-9c-0.7-3.5-1-7.6-1-12.4V4.7h-34.7V42L146.7,5.3H86.3L0,170l197.8,30.1
						L349.2,487c23.3,43.1,72.7,17,72.7,17s-18-13-45.8-65.1L223.2,150c2.3,0.1,4.6,0.2,7,0.2c7.5,0,14.3-0.7,20.4-2.1
						c6.1-1.4,11.6-3.4,16.4-6c4.8-2.6,9-5.7,12.6-9.4c3.6-3.7,6.5-7.7,8.7-12.2c0.6-1.1,1.1-2.3,1.6-3.5v83.6h35.9v-75.9h24.6
						l53.3,75.9h25.7h17.4H560h1.8H752v-30L595.8,170.6L595.8,170.6z M67.4,140.4l49.5-93.8l60.2,112.7L67.4,140.4z M364.4,93.6
						c-5.7,0.7-12.7,1.1-20.9,1.1h-17.7V34.6h25.6c7.6,0,14,0.4,19.2,1.1c5.2,0.7,9.5,1.9,12.9,3.4c5.3,2.3,9,5.5,11.2,9.6
						c2.2,4.1,3.3,8.7,3.3,14c0,6.2-1.4,11.6-4.2,16.3c-2.8,4.7-7.8,8.5-15,11.2C375,91.8,370.1,92.9,364.4,93.6z M388.5,120v-0.6
						c15.8-4.6,27.5-11.6,35.1-21.2c2.3-2.9,4.2-6,5.8-9.2v87.5L388.5,120z"/>
				</defs>
				<clipPath id="SVGID_13_">
					<use xlink:href="#SVGID_12_"  overflow="visible"/>
				</clipPath>
				
					<linearGradient id="SVGID_14_" gradientUnits="userSpaceOnUse" x1="-590.7794" y1="670.2616" x2="-590.7794" y2="442.4736" gradientTransform="matrix(-0.7484 -0.6632 -0.6632 0.7484 370.5447 -425.0738)">
					<stop  offset="0" style="stop-color:#4FCCA1;stop-opacity:0.87"/>
					<stop  offset="3.370000e-02" style="stop-color:#46C9AC;stop-opacity:0.8639"/>
					<stop  offset="0.1185" style="stop-color:#33C4C2;stop-opacity:0.8487"/>
					<stop  offset="0.2188" style="stop-color:#25C0D3;stop-opacity:0.8306"/>
					<stop  offset="0.3428" style="stop-color:#1ABDDE;stop-opacity:0.8083"/>
					<stop  offset="0.5169" style="stop-color:#15BBE5;stop-opacity:0.777"/>
					<stop  offset="1" style="stop-color:#13BBE7;stop-opacity:0.69"/>
				</linearGradient>
				<path clip-path="url(#SVGID_13_)" fill="url(#SVGID_14_)" d="M755.1,812.7C852.6,286.6-8.3,517.7,86.8,4.9"/>
			</g>
		</g>
	</g>
	<g display="none">
		<g display="inline">
			<path fill="#FFFFFF" d="M437.5,508.9H385L222.7,200.5H27.6l-33.4,64.8h-52.5L94.9-24.3h60.4L437.5,508.9z M199.4,157.3L125.6,17
				L50.9,157.3H199.4z"/>
		</g>
		<g display="inline">
			<path fill="#FFFFFF" d="M238.9,120.6c-14.3,0-26.1-2.4-35.4-7.3S187,102,182.2,93.8c-2.5-4.4-4.4-9.2-5.6-14.5
				c-1.2-5.3-1.8-11.1-1.8-17.6V-25h34.7v83.1c0,4.8,0.3,8.9,1,12.4c0.7,3.5,1.7,6.5,3.1,9c2.3,4.3,5.7,7.5,10,9.6
				c4.3,2.1,9.4,3.2,15.4,3.2c6.2,0,11.6-1.2,16-3.5c4.4-2.3,7.8-5.9,10-10.7c2.2-4.6,3.4-11,3.4-19.2V-25h34.7v86.7
				c0,11.5-2,21.2-6,29.1c-2.2,4.5-5.2,8.6-8.7,12.2c-3.6,3.7-7.8,6.8-12.6,9.4c-4.8,2.6-10.3,4.6-16.4,6
				C253.2,119.9,246.4,120.6,238.9,120.6z"/>
		</g>
		<g display="inline">
			<path fill="#FFFFFF" d="M443.6,33.9c0,13.7-3.8,25.3-11.4,34.8c-7.6,9.5-19.3,16.6-35.1,21.2v0.6l58.3,80.6h-43.1l-53.3-75.9
				h-24.6V171h-35.9V-25h59.6c9.9,0,19,0.6,27.5,1.7c8.5,1.1,15.8,2.8,21.8,5.1c11.5,4.4,20.4,10.9,26.7,19.6
				C440.5,9.9,443.6,20.8,443.6,33.9z M352.2,65.1c8.2,0,15.2-0.4,20.9-1.1s10.5-1.8,14.4-3.3c7.2-2.7,12.2-6.5,15-11.2
				c2.8-4.7,4.2-10.2,4.2-16.3c0-5.3-1.1-9.9-3.3-14c-2.2-4.1-5.9-7.3-11.2-9.6c-3.4-1.6-7.7-2.7-12.9-3.4
				C374.2,5.4,367.8,5,360.1,5h-25.6v60.1H352.2z"/>
		</g>
		<g display="inline">
			<path fill="#FFFFFF" d="M474,140.9h96.4v30H438.1V-25h127V5H474v50.7h78.2v30H474V140.9z"/>
		</g>
		<g display="inline">
			<path fill="#FFFFFF" d="M604.5,140.9h188.1v30H568.6V-25h127V5h-91.1v50.7h78.2v30h-78.2L604.5,140.9L604.5,140.9z"/>
		</g>
	</g>
</g>
<rect x="708" y="468.5" fill="none" width="631.9" height="315"/>
<text transform="matrix(1 0 0 1 663.2981 639.9648)" fill="#241F20" font-family="'HelveticaNeue-Light'" font-size="36">Corbel</text>
<text transform="matrix(1 0 0 1 707.9971 572.166)" fill="#241F20" font-family="'HelveticaNeue-Light'" font-size="36">BlairMdITC TT Medium</text>
<rect x="286.2" y="216.2" fill="none" width="707.7" height="64"/>
<g opacity="0.57" enable-background="new    ">
	<path fill="#6D6E71" d="M290.1,250.1v-31.4h3.8v15.5h0l14.4-15.5h3.8l-14.6,15.6l15.5,15.8h-3.8L294,234.8h0v15.4H290.1z"/>
	<path fill="#6D6E71" d="M318.9,222.7v-4.1h3.6v4.1H318.9z M319,250.1v-22.3h3.6v22.3H319z"/>
	<path fill="#6D6E71" d="M339.4,227.3c1.1,0,2.1,0.1,3.1,0.3s1.8,0.5,2.5,0.9v3c-1-0.4-1.9-0.7-2.7-0.8s-1.7-0.3-2.5-0.3
		c-0.9,0-1.8,0.1-2.7,0.4s-1.7,0.8-2.4,1.5s-1.3,1.6-1.7,2.7s-0.6,2.5-0.6,4.2c0,1.2,0.2,2.3,0.5,3.3s0.8,1.9,1.4,2.6
		s1.4,1.3,2.4,1.7s2.1,0.6,3.3,0.6c0.9,0,1.8-0.1,2.7-0.3s1.8-0.5,2.7-0.8v3c-0.3,0.2-0.6,0.3-1,0.5s-0.9,0.3-1.4,0.4
		s-1.1,0.2-1.6,0.3s-1.2,0.1-1.7,0.1c-1.5,0-2.9-0.2-4.3-0.7s-2.5-1.1-3.5-2.1s-1.8-2.1-2.4-3.6s-0.9-3.1-0.9-5.1
		c0-1.5,0.2-2.8,0.5-4s0.7-2.2,1.3-3.1s1.2-1.6,1.9-2.3s1.5-1.1,2.3-1.5s1.6-0.7,2.5-0.9S338.6,227.3,339.4,227.3z"/>
	<path fill="#6D6E71" d="M365.3,227.9h4.7l-10.9,10.2l10.9,12h-4.5l-10.7-11.9h0v11.9h-3.6v-33.9h3.6v21.6h0L365.3,227.9z"/>
	<path fill="#6D6E71" d="M386.5,233.8c0,0.6,0.1,1.1,0.4,1.5s0.6,0.7,1,0.9c0.4,0.2,0.9,0.4,1.5,0.6s1.2,0.3,1.8,0.4
		c0.8,0.2,1.6,0.4,2.4,0.6s1.4,0.6,2.1,1c0.6,0.5,1.1,1.1,1.5,1.8c0.4,0.8,0.6,1.8,0.6,3c0,1.1-0.2,2.1-0.7,3s-1.1,1.6-1.9,2.2
		s-1.8,1-2.9,1.3s-2.3,0.5-3.7,0.5c-0.8,0-1.6,0-2.2-0.1s-1.2-0.2-1.8-0.3s-0.9-0.3-1.3-0.4s-0.7-0.3-0.9-0.4v-3
		c0.9,0.4,1.8,0.7,2.7,0.9s1.9,0.3,3,0.3c0.9,0,1.6-0.1,2.3-0.2s1.3-0.4,1.8-0.7c0.5-0.3,0.9-0.7,1.1-1.1c0.3-0.5,0.4-1,0.4-1.6
		c0-0.6-0.1-1.1-0.4-1.5c-0.2-0.4-0.6-0.7-1-1s-0.9-0.5-1.4-0.7s-1.1-0.3-1.7-0.5c-0.8-0.2-1.6-0.4-2.4-0.6c-0.8-0.2-1.5-0.6-2.2-1
		c-0.7-0.4-1.2-1-1.6-1.7c-0.4-0.7-0.6-1.7-0.6-2.8c0-1.2,0.2-2.2,0.6-3s1-1.6,1.7-2.1s1.6-1,2.5-1.3s2-0.4,3-0.4
		c1.2,0,2.4,0.1,3.4,0.4s2,0.5,2.9,0.9v3.1c-0.9-0.4-1.8-0.7-2.8-0.9s-1.9-0.3-2.9-0.4c-0.8,0-1.6,0.1-2.1,0.3s-1.1,0.4-1.5,0.7
		c-0.4,0.3-0.7,0.7-0.8,1.1S386.5,233.3,386.5,233.8z"/>
	<path fill="#6D6E71" d="M415,250.2c-0.3,0.1-0.8,0.2-1.4,0.4s-1.4,0.2-2.3,0.2c-1.2,0-2.2-0.1-3-0.4s-1.6-0.7-2.1-1.2s-1-1.2-1.3-2
		s-0.4-1.6-0.4-2.6V231h-4.3v-3.1h4.3v-6.1h3.6v6.1h6.7v3.1H408v13c0,0.5,0.1,1,0.2,1.4s0.4,0.8,0.7,1.1s0.7,0.6,1.2,0.8
		s1.1,0.3,1.8,0.3c0.5,0,1,0,1.5-0.1s1-0.2,1.5-0.3L415,250.2L415,250.2z"/>
	<path fill="#6D6E71" d="M433,247.7L433,247.7c-0.4,0.4-0.8,0.7-1.2,1.1s-1,0.7-1.6,1s-1.2,0.5-1.9,0.7s-1.5,0.3-2.2,0.3
		c-1.1,0-2.1-0.2-3-0.5s-1.7-0.8-2.3-1.4s-1.2-1.4-1.5-2.3s-0.5-1.9-0.5-3c0-1.1,0.2-2.1,0.6-3s1-1.6,1.7-2.2s1.6-1.1,2.6-1.4
		s2.1-0.5,3.3-0.5c1.2,0,2.2,0.1,3.2,0.3s1.9,0.4,2.6,0.7h0.1v-1.5c0-0.6,0-1.1-0.1-1.6s-0.2-0.9-0.4-1.2c-0.4-0.8-1.1-1.4-1.9-1.9
		s-2.1-0.7-3.6-0.7c-1.1,0-2.2,0.1-3.2,0.3s-2,0.5-3,0.9v-3c0.4-0.2,0.8-0.4,1.3-0.5s1-0.3,1.6-0.4s1.2-0.2,1.8-0.3s1.2-0.1,1.9-0.1
		c2.2,0,4.1,0.4,5.5,1.2s2.5,1.9,3.1,3.2c0.2,0.5,0.4,1.1,0.5,1.7s0.2,1.3,0.2,2v14.9h-3L433,247.7z M432.8,240.4
		c-0.7-0.2-1.5-0.4-2.4-0.5s-1.9-0.3-3-0.3c-1.5,0-2.7,0.3-3.6,1s-1.3,1.7-1.3,3c0,0.7,0.1,1.3,0.3,1.8c0.2,0.5,0.5,0.9,0.9,1.3
		s0.8,0.6,1.4,0.8s1.1,0.2,1.7,0.2c0.8,0,1.5-0.1,2.2-0.3s1.3-0.5,1.8-0.8c0.5-0.3,1-0.6,1.3-0.9c0.4-0.3,0.6-0.6,0.8-0.7V240.4z"/>
	<path fill="#6D6E71" d="M455.7,230.8h-0.3c-0.9,0-1.7,0.1-2.5,0.2s-1.6,0.4-2.3,0.7s-1.4,0.7-2,1.2s-1.1,1-1.5,1.7v15.5h-3.6v-22.3
		h2.8l0.7,3.5h0.1c0.4-0.6,0.8-1.1,1.3-1.6s1.1-0.9,1.8-1.3s1.4-0.7,2.2-0.9s1.6-0.3,2.5-0.3c0.2,0,0.3,0,0.5,0s0.3,0,0.4,0
		L455.7,230.8L455.7,230.8z"/>
	<path fill="#6D6E71" d="M471.3,250.2c-0.3,0.1-0.8,0.2-1.4,0.4s-1.4,0.2-2.3,0.2c-1.2,0-2.2-0.1-3-0.4s-1.6-0.7-2.1-1.2
		s-1-1.2-1.3-2s-0.4-1.6-0.4-2.6V231h-4.3v-3.1h4.3v-6.1h3.6v6.1h6.7v3.1h-6.7v13c0,0.5,0.1,1,0.2,1.4s0.4,0.8,0.7,1.1
		s0.7,0.6,1.2,0.8s1.1,0.3,1.8,0.3c0.5,0,1,0,1.5-0.1s1-0.2,1.5-0.3L471.3,250.2L471.3,250.2z"/>
	<path fill="#6D6E71" d="M483,227.9h3.6l6.9,17.5h0.1l7.1-17.5h3.6L490.6,261H487l4.8-11.3L483,227.9z"/>
	<path fill="#6D6E71" d="M528.7,239c0,1.8-0.2,3.3-0.8,4.8s-1.2,2.7-2.1,3.7s-2,1.8-3.3,2.4s-2.8,0.8-4.4,0.8
		c-1.7,0-3.1-0.3-4.4-0.8s-2.4-1.4-3.3-2.4s-1.6-2.3-2.1-3.7s-0.7-3-0.7-4.8c0-1.8,0.2-3.4,0.8-4.8s1.2-2.7,2.1-3.7s2-1.8,3.3-2.4
		s2.8-0.8,4.4-0.8c1.6,0,3.1,0.3,4.4,0.8s2.4,1.4,3.3,2.4s1.6,2.3,2.1,3.7S528.7,237.3,528.7,239z M524.9,239c0-1.4-0.2-2.6-0.5-3.7
		s-0.8-2-1.4-2.7s-1.3-1.3-2.1-1.7s-1.7-0.6-2.7-0.6s-1.9,0.2-2.7,0.6s-1.5,0.9-2.1,1.7s-1.1,1.6-1.4,2.7s-0.5,2.3-0.5,3.7
		c0,1.4,0.2,2.6,0.5,3.6s0.8,2,1.4,2.7s1.3,1.3,2.2,1.7s1.7,0.6,2.7,0.6s1.9-0.2,2.7-0.6s1.5-0.9,2.1-1.7s1.1-1.6,1.4-2.7
		S524.9,240.4,524.9,239z"/>
	<path fill="#6D6E71" d="M543.2,250.7c-1.2,0-2.2-0.1-3.1-0.4s-1.7-0.6-2.4-1.1s-1.3-1-1.8-1.6s-0.9-1.3-1.1-2.1
		c-0.2-0.6-0.4-1.2-0.5-1.9s-0.1-1.4-0.1-2.2v-13.7h3.6v13.6c0,1.2,0.2,2.3,0.5,3.1c0.4,0.9,1,1.7,1.8,2.2s1.9,0.8,3.2,0.8
		c1.4,0,2.5-0.3,3.3-0.9s1.4-1.4,1.8-2.4c0.3-0.8,0.4-1.7,0.4-2.8v-13.6h3.6v13.7c0,0.8,0,1.4-0.1,2.1s-0.2,1.2-0.4,1.8
		c-0.3,0.8-0.7,1.5-1.2,2.1s-1.1,1.2-1.8,1.7s-1.6,0.8-2.5,1.1S544.4,250.7,543.2,250.7z"/>
	<path fill="#6D6E71" d="M571.5,230.8h-0.3c-0.9,0-1.7,0.1-2.5,0.2s-1.6,0.4-2.3,0.7s-1.4,0.7-2,1.2s-1.1,1-1.5,1.7v15.5h-3.6v-22.3
		h2.8l0.7,3.5h0.1c0.4-0.6,0.8-1.1,1.3-1.6s1.1-0.9,1.8-1.3s1.4-0.7,2.2-0.9s1.6-0.3,2.5-0.3c0.2,0,0.3,0,0.5,0s0.3,0,0.4,0
		L571.5,230.8L571.5,230.8z"/>
	<path fill="#6D6E71" d="M594.5,227.3c1.1,0,2.1,0.1,3.1,0.3s1.8,0.5,2.5,0.9v3c-1-0.4-1.9-0.7-2.7-0.8s-1.7-0.3-2.5-0.3
		c-0.9,0-1.8,0.1-2.7,0.4s-1.7,0.8-2.4,1.5s-1.3,1.6-1.7,2.7s-0.6,2.5-0.6,4.2c0,1.2,0.2,2.3,0.5,3.3s0.8,1.9,1.4,2.6
		s1.4,1.3,2.4,1.7s2.1,0.6,3.3,0.6c0.9,0,1.8-0.1,2.7-0.3s1.8-0.5,2.7-0.8v3c-0.3,0.2-0.6,0.3-1,0.5s-0.9,0.3-1.4,0.4
		s-1.1,0.2-1.6,0.3s-1.2,0.1-1.7,0.1c-1.5,0-2.9-0.2-4.3-0.7s-2.5-1.1-3.5-2.1s-1.8-2.1-2.4-3.6s-0.9-3.1-0.9-5.1
		c0-1.5,0.2-2.8,0.5-4s0.7-2.2,1.3-3.1s1.2-1.6,1.9-2.3s1.5-1.1,2.3-1.5s1.6-0.7,2.5-0.9S593.7,227.3,594.5,227.3z"/>
	<path fill="#6D6E71" d="M619,247.7L619,247.7c-0.4,0.4-0.8,0.7-1.2,1.1s-1,0.7-1.6,1s-1.2,0.5-1.9,0.7s-1.5,0.3-2.2,0.3
		c-1.1,0-2.1-0.2-3-0.5s-1.7-0.8-2.3-1.4s-1.2-1.4-1.5-2.3s-0.5-1.9-0.5-3c0-1.1,0.2-2.1,0.6-3s1-1.6,1.7-2.2s1.6-1.1,2.6-1.4
		s2.1-0.5,3.3-0.5c1.2,0,2.2,0.1,3.2,0.3s1.9,0.4,2.6,0.7h0.1v-1.5c0-0.6,0-1.1-0.1-1.6s-0.2-0.9-0.4-1.2c-0.4-0.8-1.1-1.4-1.9-1.9
		s-2.1-0.7-3.6-0.7c-1.1,0-2.2,0.1-3.2,0.3s-2,0.5-3,0.9v-3c0.4-0.2,0.8-0.4,1.3-0.5s1-0.3,1.6-0.4s1.2-0.2,1.8-0.3s1.2-0.1,1.9-0.1
		c2.2,0,4.1,0.4,5.5,1.2s2.5,1.9,3.1,3.2c0.2,0.5,0.4,1.1,0.5,1.7s0.2,1.3,0.2,2v14.9h-3L619,247.7z M618.8,240.4
		c-0.7-0.2-1.5-0.4-2.4-0.5s-1.9-0.3-3-0.3c-1.5,0-2.7,0.3-3.6,1s-1.3,1.7-1.3,3c0,0.7,0.1,1.3,0.3,1.8c0.2,0.5,0.5,0.9,0.9,1.3
		s0.8,0.6,1.4,0.8s1.1,0.2,1.7,0.2c0.8,0,1.5-0.1,2.2-0.3s1.3-0.5,1.8-0.8c0.5-0.3,1-0.6,1.3-0.9c0.4-0.3,0.6-0.6,0.8-0.7V240.4z"/>
	<path fill="#6D6E71" d="M641.7,230.8h-0.3c-0.9,0-1.7,0.1-2.5,0.2s-1.6,0.4-2.3,0.7s-1.4,0.7-2,1.2s-1.1,1-1.5,1.7v15.5h-3.6v-22.3
		h2.8l0.7,3.5h0.1c0.4-0.6,0.8-1.1,1.3-1.6s1.1-0.9,1.8-1.3s1.4-0.7,2.2-0.9s1.6-0.3,2.5-0.3c0.2,0,0.3,0,0.5,0s0.3,0,0.4,0
		L641.7,230.8L641.7,230.8z"/>
	<path fill="#6D6E71" d="M656.1,247.6c1.2,0,2.3-0.1,3.3-0.3s2-0.5,3-0.8v3c-0.8,0.4-1.8,0.7-3,0.9s-2.4,0.3-3.8,0.3
		c-1.6,0-3.1-0.2-4.5-0.6s-2.6-1.1-3.6-2s-1.8-2.1-2.4-3.6s-0.9-3.2-0.9-5.3c0-2,0.3-3.8,0.8-5.3c0.6-1.5,1.3-2.7,2.2-3.7
		c0.9-1,2-1.8,3.2-2.2s2.5-0.8,3.8-0.8c1.2,0,2.4,0.2,3.5,0.6c1.1,0.4,2,1.1,2.8,2c0.8,0.9,1.4,2,1.9,3.4c0.5,1.4,0.7,3.1,0.7,5.1
		c0,0.2,0,0.3,0,0.5s0,0.4,0,0.9h-15.4c0,1.4,0.2,2.6,0.6,3.6s1,1.8,1.8,2.4s1.6,1.1,2.6,1.3S655,247.6,656.1,247.6z M654.2,230.4
		c-0.8,0-1.6,0.2-2.3,0.5s-1.3,0.8-1.9,1.3c-0.5,0.6-1,1.2-1.3,2c-0.3,0.8-0.5,1.6-0.6,2.4h11.4c0-0.9-0.1-1.7-0.3-2.4
		c-0.2-0.8-0.6-1.4-1-2s-1-1-1.6-1.3C655.8,230.6,655.1,230.4,654.2,230.4z"/>
	<path fill="#6D6E71" d="M680,247.6c1.2,0,2.3-0.1,3.3-0.3s2-0.5,3-0.8v3c-0.8,0.4-1.8,0.7-3,0.9s-2.4,0.3-3.8,0.3
		c-1.6,0-3.1-0.2-4.5-0.6s-2.6-1.1-3.6-2s-1.8-2.1-2.4-3.6s-0.9-3.2-0.9-5.3c0-2,0.3-3.8,0.8-5.3c0.6-1.5,1.3-2.7,2.2-3.7
		c0.9-1,2-1.8,3.2-2.2s2.5-0.8,3.8-0.8c1.2,0,2.4,0.2,3.5,0.6c1.1,0.4,2,1.1,2.8,2c0.8,0.9,1.4,2,1.9,3.4c0.5,1.4,0.7,3.1,0.7,5.1
		c0,0.2,0,0.3,0,0.5s0,0.4,0,0.9h-15.4c0,1.4,0.2,2.6,0.6,3.6s1,1.8,1.8,2.4s1.6,1.1,2.6,1.3S678.9,247.6,680,247.6z M678.1,230.4
		c-0.8,0-1.6,0.2-2.3,0.5s-1.3,0.8-1.9,1.3c-0.5,0.6-1,1.2-1.3,2c-0.3,0.8-0.5,1.6-0.6,2.4h11.4c0-0.9-0.1-1.7-0.3-2.4
		c-0.2-0.8-0.6-1.4-1-2s-1-1-1.6-1.3C679.7,230.6,679,230.4,678.1,230.4z"/>
	<path fill="#6D6E71" d="M705.6,230.8h-0.3c-0.9,0-1.7,0.1-2.5,0.2s-1.6,0.4-2.3,0.7s-1.4,0.7-2,1.2s-1.1,1-1.5,1.7v15.5h-3.6v-22.3
		h2.8l0.7,3.5h0.1c0.4-0.6,0.8-1.1,1.3-1.6s1.1-0.9,1.8-1.3s1.4-0.7,2.2-0.9s1.6-0.3,2.5-0.3c0.2,0,0.3,0,0.5,0s0.3,0,0.4,0
		L705.6,230.8L705.6,230.8z"/>
</g>
</svg>
