<?xml version="1.0" encoding="utf-8"?>
<!-- Generator: Adobe Illustrator 15.0.0, SVG Export Plug-In . SVG Version: 6.00 Build 0)  -->
<!DOCTYPE svg PUBLIC "-//W3C//DTD SVG 1.1//EN" "http://www.w3.org/Graphics/SVG/1.1/DTD/svg11.dtd">
<svg version="1.1" xmlns="http://www.w3.org/2000/svg" xmlns:xlink="http://www.w3.org/1999/xlink" x="0px" y="0px"
	 width="751.967px" height="516px" viewBox="0 0 751.967 516" enable-background="new 0 0 751.967 516" xml:space="preserve">
<g id="Layer_1">
</g>
<g id="Layer_2">
	<g>
		<defs>
			<path id="SVGID_1_" d="M595.846,170.567v-55.225h78.223V85.313h-78.223V34.63h91.113V4.601H559.957v165.966h-94.624v-55.225
				h78.223V85.313h-78.223V34.63h85.563V4.601H429.444v32.715c-1.118-2.26-2.399-4.404-3.858-6.421
				c-6.251-8.643-15.139-15.161-26.66-19.556c-6.057-2.245-13.33-3.93-21.826-5.054c-8.496-1.122-17.677-1.685-27.539-1.685h-59.619
				v0.052h-30.286v83.79c0,8.203-1.124,14.6-3.369,19.189c-2.248,4.785-5.592,8.35-10.034,10.693
				c-4.445,2.344-9.792,3.516-16.04,3.516c-5.958,0-11.085-1.049-15.381-3.15c-4.299-2.098-7.617-5.295-9.961-9.594
				c-1.369-2.539-2.395-5.541-3.076-9.01c-0.685-3.465-1.025-7.592-1.025-12.377V4.653h-34.717v37.321L146.666,5.342H86.267L0,170
				l197.771,30.087l151.431,286.899C372.485,530.071,421.896,504,421.896,504s-18-13-45.791-65.112L223.247,150.049
				c2.255,0.136,4.573,0.21,6.965,0.21c7.519,0,14.33-0.711,20.435-2.125c6.102-1.416,11.572-3.416,16.406-6.006
				c4.834-2.586,9.031-5.713,12.598-9.375c3.563-3.662,6.468-7.738,8.716-12.23c0.569-1.125,1.087-2.296,1.575-3.494v83.568h35.889
				v-75.879h24.609l53.32,75.879h25.685h17.382h113.131h1.763h190.247v-30.029H595.846z M67.436,140.397l49.48-93.768
				l60.177,112.731L67.436,140.397z M364.429,93.59c-5.713,0.732-12.671,1.099-20.874,1.099H325.83V34.63h25.635
				c7.617,0,14.012,0.366,19.189,1.099c5.175,0.732,9.471,1.881,12.891,3.442c5.273,2.344,9.009,5.543,11.206,9.595
				c2.197,4.054,3.296,8.716,3.296,13.989c0,6.152-1.392,11.598-4.175,16.333c-2.783,4.737-7.789,8.474-15.015,11.206
				C374.95,91.759,370.142,92.857,364.429,93.59z M388.525,120.03v-0.586c15.82-4.589,27.514-11.646,35.083-21.167
				c2.295-2.888,4.236-5.97,5.836-9.239v87.538L388.525,120.03z"/>
		</defs>
		<linearGradient id="SVGID_2_" gradientUnits="userSpaceOnUse" x1="375.9834" y1="508.3936" x2="375.9834" y2="-207.8452">
			<stop  offset="0" style="stop-color:#3EB4D9"/>
			<stop  offset="0.0357" style="stop-color:#4FBCDC"/>
			<stop  offset="0.1048" style="stop-color:#6AC8E0"/>
			<stop  offset="0.1843" style="stop-color:#80D2E4"/>
			<stop  offset="0.2771" style="stop-color:#91DAE7"/>
			<stop  offset="0.3919" style="stop-color:#9CDFE9"/>
			<stop  offset="0.5529" style="stop-color:#A3E2EA"/>
			<stop  offset="1" style="stop-color:#A5E3EA"/>
		</linearGradient>
		<use xlink:href="#SVGID_1_"  overflow="visible" fill="url(#SVGID_2_)"/>
		<clipPath id="SVGID_3_">
			<use xlink:href="#SVGID_1_"  overflow="visible"/>
		</clipPath>
		<linearGradient id="SVGID_4_" gradientUnits="userSpaceOnUse" x1="361.6934" y1="674.9102" x2="361.6933" y2="-922.3376">
			<stop  offset="0" style="stop-color:#7BD7CD"/>
			<stop  offset="0.1131" style="stop-color:#8CDCD8"/>
			<stop  offset="0.3218" style="stop-color:#A7E3E8"/>
			<stop  offset="0.5364" style="stop-color:#B9E8F3"/>
			<stop  offset="0.7586" style="stop-color:#C4EBFA"/>
			<stop  offset="1" style="stop-color:#C8ECFC"/>
		</linearGradient>
		<circle clip-path="url(#SVGID_3_)" fill="url(#SVGID_4_)" cx="361.694" cy="116.984" r="565.557"/>
		
			<linearGradient id="SVGID_5_" gradientUnits="userSpaceOnUse" x1="-448.2954" y1="355.0889" x2="-448.2954" y2="-52.1841" gradientTransform="matrix(-0.8783 -0.4781 -0.4781 0.8783 211.2935 -193.0911)">
			<stop  offset="0" style="stop-color:#D9F2EB"/>
			<stop  offset="0.0097" style="stop-color:#D5F1E9;stop-opacity:0.9954"/>
			<stop  offset="0.0809" style="stop-color:#BAE8DA;stop-opacity:0.962"/>
			<stop  offset="0.1619" style="stop-color:#A4E2CD;stop-opacity:0.9239"/>
			<stop  offset="0.2572" style="stop-color:#93DCC4;stop-opacity:0.8791"/>
			<stop  offset="0.3752" style="stop-color:#88D9BD;stop-opacity:0.8237"/>
			<stop  offset="0.5406" style="stop-color:#81D7B9;stop-opacity:0.7459"/>
			<stop  offset="1" style="stop-color:#7FD6B8;stop-opacity:0.53"/>
		</linearGradient>
		<path clip-path="url(#SVGID_3_)" fill="url(#SVGID_5_)" d="M916.917,416.697C893.699-117.844,109.54,525.595,86.936,4.601"/>
		
			<linearGradient id="SVGID_6_" gradientUnits="userSpaceOnUse" x1="-475.1577" y1="368.8574" x2="-475.1577" y2="137.5378" gradientTransform="matrix(-0.8656 -0.5008 -0.5008 0.8656 234.0358 -171.0858)">
			<stop  offset="0" style="stop-color:#F0F27A;stop-opacity:0.72"/>
			<stop  offset="3.484649e-04" style="stop-color:#D3EB88;stop-opacity:0.7359"/>
			<stop  offset="7.631315e-04" style="stop-color:#B8E494;stop-opacity:0.7548"/>
			<stop  offset="0.0012" style="stop-color:#A2DE9E;stop-opacity:0.7766"/>
			<stop  offset="0.0018" style="stop-color:#91DAA6;stop-opacity:0.802"/>
			<stop  offset="0.0025" style="stop-color:#86D7AC;stop-opacity:0.8335"/>
			<stop  offset="0.0035" style="stop-color:#7FD5AF;stop-opacity:0.8776"/>
			<stop  offset="0.0061" style="stop-color:#7DD5B0"/>
			<stop  offset="1" style="stop-color:#59D2DB;stop-opacity:0.76"/>
		</linearGradient>
		<path clip-path="url(#SVGID_3_)" fill="url(#SVGID_6_)" d="M912.636,634.433C903.383,99.467,95.285,524.97,86.293,3.563"/>
		
			<linearGradient id="SVGID_7_" gradientUnits="userSpaceOnUse" x1="-450.1294" y1="450.79" x2="-450.1294" y2="223.0034" gradientTransform="matrix(-0.7484 -0.6632 -0.6632 0.7484 330.2537 -167.5399)">
			<stop  offset="0" style="stop-color:#4FCCA1;stop-opacity:0.87"/>
			<stop  offset="0.0337" style="stop-color:#46C9AC;stop-opacity:0.8639"/>
			<stop  offset="0.1185" style="stop-color:#33C4C2;stop-opacity:0.8487"/>
			<stop  offset="0.2188" style="stop-color:#25C0D3;stop-opacity:0.8306"/>
			<stop  offset="0.3428" style="stop-color:#1ABDDE;stop-opacity:0.8083"/>
			<stop  offset="0.5169" style="stop-color:#15BBE5;stop-opacity:0.777"/>
			<stop  offset="1" style="stop-color:#13BBE7;stop-opacity:0.69"/>
		</linearGradient>
		<path clip-path="url(#SVGID_3_)" fill="url(#SVGID_7_)" d="M755.097,812.694C852.589,286.606-8.276,517.674,86.77,4.924"/>
	</g>
	<g display="none">
		<g display="inline">
			<path fill="#FFFFFF" d="M437.542,508.943h-52.5l-162.368-308.43H27.618l-33.375,64.8h-52.494l153.2-289.6h60.399L437.542,508.943
				z M199.368,157.313l-73.77-140.312L50.924,157.313H199.368z"/>
		</g>
		<g display="inline">
			<path fill="#FFFFFF" d="M238.895,120.63c-14.26,0-26.074-2.418-35.449-7.252s-16.457-11.352-21.24-19.555
				c-2.541-4.395-4.42-9.229-5.64-14.502c-1.223-5.273-1.831-11.133-1.831-17.578v-86.719h34.717v83.057
				c0,4.785,0.341,8.912,1.025,12.377c0.682,3.469,1.707,6.471,3.076,9.01c2.344,4.299,5.662,7.496,9.961,9.594
				c4.296,2.102,9.423,3.15,15.381,3.15c6.248,0,11.595-1.172,16.04-3.516c4.442-2.344,7.786-5.908,10.034-10.693
				c2.245-4.59,3.369-10.986,3.369-19.189v-83.79h34.717v86.719c0,11.523-2.003,21.24-6.006,29.15
				c-2.248,4.492-5.152,8.568-8.716,12.23c-3.566,3.662-7.764,6.789-12.598,9.375c-4.834,2.59-10.305,4.59-16.406,6.006
				C253.225,119.919,246.413,120.63,238.895,120.63z"/>
		</g>
		<g display="inline">
			<path fill="#FFFFFF" d="M443.644,33.858c0,13.673-3.786,25.269-11.353,34.79c-7.569,9.521-19.263,16.578-35.083,21.167v0.586
				l58.301,80.566h-43.066l-53.32-75.879h-24.609v75.879h-35.889V-25.028h59.619c9.862,0,19.043,0.563,27.539,1.685
				c8.496,1.124,15.77,2.809,21.826,5.054c11.521,4.395,20.409,10.913,26.66,19.556C440.517,9.908,443.644,20.773,443.644,33.858z
				 M352.237,65.06c8.203,0,15.161-0.366,20.874-1.099s10.521-1.831,14.429-3.296c7.226-2.732,12.231-6.469,15.015-11.206
				c2.783-4.735,4.175-10.181,4.175-16.333c0-5.273-1.099-9.936-3.296-13.989c-2.197-4.051-5.933-7.251-11.206-9.595
				c-3.42-1.561-7.716-2.71-12.891-3.442c-5.178-0.732-11.572-1.099-19.189-1.099h-25.635V65.06H352.237z"/>
		</g>
		<g display="inline">
			<path fill="#FFFFFF" d="M474.016,140.938h96.387v30.029H438.127V-25.028h127.002V5.001h-91.113v50.684h78.223v30.029h-78.223
				V140.938z"/>
		</g>
		<g display="inline">
			<path fill="#FFFFFF" d="M604.528,140.938h188.051v30.029H568.64V-25.028h127.002V5.001h-91.113v50.683h78.223v30.029h-78.223
				V140.938z"/>
		</g>
	</g>
</g>
<g id="Layer_3">
	<rect x="707.997" y="468.486" fill="none" width="631.917" height="315.028"/>
	<text transform="matrix(1 0 0 1 707.9971 528.9648)" display="none"><tspan x="0" y="0" display="inline" fill="#241F20" font-family="'HelveticaNeue-Light'" font-size="36">Corbel</tspan><tspan x="0" y="43.201" display="inline" fill="#241F20" font-family="'HelveticaNeue-Light'" font-size="36">BlairMdITC TT Medium</tspan></text>
	<rect x="286.164" y="216.209" fill="none" width="707.732" height="64"/>
	<text transform="matrix(1 0 0 1 286.1641 250.1445)" opacity="0.57" fill="#6D6E71" font-family="'Corbel'" font-size="48">Kick start your carreer</text>
</g>
</svg>
